PathFileType	4	(X/Y/Z)	Walk9.trc
DataRate	CameraRate	NumFrames	NumMarkers	Units	OrigDataRate	OrigDataStartFrame	OrigNumFrames
200.000000	200.000000	8	59	mm	200.000000	494	743
Frame#	Times		LToe		LBHD		LWRR		LElbowM		C7		RMT1		LACR1		RMT5		RToe		RTB2		LUA1		LCAR		RTB3		RWRU		LWRU		RCAR		RFA1		RCAL		RMMAL		RLFC		LMMAL		LTH2		RElbowM		LTB2		LPSI		LASI		LTH3		LLFC		RTH3		RASI		RPSI		LFHD		LCAL		STRN		LMT5		RBHD		RACR1		RMFC		RLMAL		RElbow		LLMAL		LMFC		RFHD		LTB1		LTH4		RUA1		LTB4		RBack		LTH1		RTB1		LElbow		RTH2		LMT1		RTH1		RTH4		LTB3		RTB4		RWRR		T10
			X1	Y1	Z1	X2	Y2	Z2	X3	Y3	Z3	X4	Y4	Z4	X5	Y5	Z5	X6	Y6	Z6	X7	Y7	Z7	X8	Y8	Z8	X9	Y9	Z9	X10	Y10	Z10	X11	Y11	Z11	X12	Y12	Z12	X13	Y13	Z13	X14	Y14	Z14	X15	Y15	Z15	X16	Y16	Z16	X17	Y17	Z17	X18	Y18	Z18	X19	Y19	Z19	X20	Y20	Z20	X21	Y21	Z21	X22	Y22	Z22	X23	Y23	Z23	X24	Y24	Z24	X25	Y25	Z25	X26	Y26	Z26	X27	Y27	Z27	X28	Y28	Z28	X29	Y29	Z29	X30	Y30	Z30	X31	Y31	Z31	X32	Y32	Z32	X33	Y33	Z33	X34	Y34	Z34	X35	Y35	Z35	X36	Y36	Z36	X37	Y37	Z37	X38	Y38	Z38	X39	Y39	Z39	X40	Y40	Z40	X41	Y41	Z41	X42	Y42	Z42	X43	Y43	Z43	X44	Y44	Z44	X45	Y45	Z45	X46	Y46	Z46	X47	Y47	Z47	X48	Y48	Z48	X49	Y49	Z49	X50	Y50	Z50	X51	Y51	Z51	X52	Y52	Z52	X53	Y53	Z53	X54	Y54	Z54	X55	Y55	Z55	X56	Y56	Z56	X57	Y57	Z57	X58	Y58	Z58	X59	Y59	Z59

494	2.47	-250.07	34.155	-77.882	-359.32	1609.5	-94.71	-204.99	823.64	-313.14	-323.44	1079.1	-330.11	-393.67	1480.6	-33.577	-47.188	60.297	57.647	-302.08	1418.7	-202.12	-93.131	54.057	125.38	-6.9691	77.093	102.33	-158.67	319.37	112.44	-304.64	1216.7	-285.61	-278.26	944.85	-330.34	-150.89	229.86	40.073	-369.32	809.08	217.1	-132.47	826.44	-293.71	-297.93	791.05	233.18	-385.86	928.6	245.66	-248.41	51.464	22.986	-168.75	99.569	14.63	-181.11	552.18	116.02	-431.12	67.392	-23.018	-279.87	672.17	-140.08	-450.33	1093.7	170.28	-361.15	290.08	-130.81	-486.61	1037.3	-68.711	-293.69	1034.6	-189.86	-343.08	575.36	-160.4	-359.27	510.94	-150.12	-196.2	595.89	118.61	-296.41	992.1	118.57	-489.27	1036	-0.24282	-181.81	1644.6	-66.724	-519.05	34.472	-54.063	-473.54	1225.1	-33.354	-341.32	22.46	-136.22	-355.91	1602	41.948	-417.61	1369.4	118.71	-195.27	511.47	-7.6298	-207.06	94.334	88.652	-415.2	1087.9	247.79	-455.22	59.157	-104.66	-377.71	493.99	-23.326	-180.37	1642	8.0504	-331.99	380.71	-62.918	-339.59	667.33	-182.46	-332.84	1243.4	207.68	-358.02	291.87	-58.9	-285.21	1420.7	122.82	-337.11	758.65	-201.33	-129.97	414.42	42.108	-372.08	1060.7	-262.65	-178.89	710.52	91.234	-301.13	29.763	-53.388	-275	766.81	145.07	-230.75	681.56	135.27	-382.61	202.68	-56.451	-139.63	317.59	39.618	-297.57	836.61	182.79	-187.07	1232.6	-40.563
495	2.475	-249.87	33.852	-78.007	-354.62	1609.1	-94.613	-196.83	824.34	-312.68	-317.22	1078.9	-330.5	-388.95	1480.2	-33.522	-29.993	61.232	58.197	-297.41	1418.3	-202.09	-75.951	54.137	125.92	9.8253	78.745	102.93	-149.27	318.64	112.79	-299.26	1216.5	-285.83	-270.98	944.91	-330.44	-138.43	229.21	40.62	-365.2	808.74	217.2	-124.39	827.76	-293.02	-293.8	790.62	233.15	-381.56	928.27	245.77	-231.03	48.623	23.248	-152.36	98.382	15.126	-177.82	550.75	116.15	-430.97	67.328	-22.935	-276.84	671.51	-140.01	-445.92	1093.4	170.47	-360.04	289.66	-130.78	-481.97	1036.9	-68.159	-289.36	1034.1	-190.05	-340.51	575.03	-160.44	-357.13	510.6	-150.12	-192.8	594.5	118.72	-291.24	991.5	118.6	-484.41	1035.4	0.25432	-177.09	1644.2	-66.613	-519.03	34.544	-53.968	-468.84	1224.6	-33.091	-341.3	22.407	-136.28	-351.2	1601.5	42.036	-412.85	1369	118.76	-191.25	509.8	-7.6521	-190.77	92.114	89.051	-410.72	1087.6	247.96	-455.18	59.201	-104.56	-375.65	493.78	-23.329	-175.67	1641.6	8.1604	-330.41	380.18	-62.946	-336.59	667.03	-182.44	-328.21	1243	207.75	-356.81	291.49	-58.904	-280.42	1420.2	122.82	-333.63	758.34	-201.28	-123.2	414.32	42.455	-366.21	1060.1	-263.18	-174.99	709.05	91.382	-301.1	29.757	-53.349	-270.83	765.78	145.32	-226.99	680.31	135.43	-381.82	202.4	-56.413	-129.84	317.25	40.072	-293.45	836.18	182.77	-182.25	1232.3	-40.611
496	2.48	-249.69	33.563	-78.129	-349.9	1608.6	-94.495	-188.75	825.02	-312.21	-311.05	1078.6	-330.88	-384.22	1479.7	-33.45	-13.039	62.395	58.684	-292.72	1417.9	-202.03	-58.946	54.492	126.42	26.372	80.649	103.43	-140	317.98	113.14	-293.88	1216.2	-286.02	-263.76	944.95	-330.51	-126.17	228.71	41.152	-361.04	808.35	217.32	-116.4	829.05	-292.32	-289.64	790.16	233.14	-377.22	927.89	245.89	-213.84	46.072	23.573	-136.17	97.443	15.639	-174.67	549.19	116.26	-430.83	67.264	-22.848	-273.78	670.85	-139.93	-441.46	1093.1	170.66	-358.9	289.23	-130.74	-477.31	1036.4	-67.581	-285.06	1033.6	-190.24	-337.9	574.69	-160.47	-354.95	510.25	-150.1	-189.54	592.99	118.83	-286.03	990.86	118.63	-479.53	1034.8	0.77703	-172.35	1643.7	-66.484	-519	34.621	-53.872	-464.12	1224.2	-32.803	-341.29	22.36	-136.32	-346.47	1601	42.146	-408.07	1368.5	118.82	-187.33	508.05	-7.7038	-174.62	90.159	89.484	-406.2	1087.3	248.14	-455.13	59.251	-104.45	-373.55	493.56	-23.317	-170.94	1641.1	8.2898	-328.8	379.65	-62.959	-333.56	666.72	-182.41	-323.54	1242.5	207.82	-355.6	291.08	-58.886	-275.59	1419.7	122.84	-330.13	758.01	-201.22	-116.6	414.2	42.757	-360.38	1059.6	-263.69	-171.16	707.45	91.579	-301.06	29.75	-53.317	-266.75	764.63	145.57	-223.37	678.94	135.58	-381.04	202.12	-56.366	-120.24	316.98	40.496	-289.29	835.7	182.77	-177.43	1232	-40.66
497	2.485	-249.5	33.286	-78.247	-345.16	1608.2	-94.357	-180.74	825.68	-311.72	-304.91	1078.3	-331.23	-379.47	1479.3	-33.36	3.6289	63.789	59.095	-287.99	1417.5	-201.95	-42.158	55.123	126.88	42.633	82.807	103.81	-130.86	317.4	113.46	-288.48	1216	-286.17	-256.62	944.97	-330.55	-114.12	228.35	41.661	-356.86	807.93	217.45	-108.49	830.31	-291.62	-285.44	789.64	233.13	-372.83	927.48	246.03	-196.87	43.805	23.965	-120.25	96.748	16.163	-171.63	547.53	116.36	-430.69	67.2	-22.756	-270.7	670.17	-139.84	-436.96	1092.7	170.88	-357.74	288.8	-130.68	-472.64	1035.8	-66.98	-280.8	1033.1	-190.4	-335.26	574.32	-160.49	-352.72	509.88	-150.07	-186.39	591.35	118.93	-280.78	990.18	118.66	-474.63	1034.2	1.3234	-167.6	1643.3	-66.334	-518.98	34.702	-53.776	-459.39	1223.7	-32.488	-341.28	22.32	-136.35	-341.72	1600.5	42.278	-403.26	1368.1	118.91	-183.49	506.25	-7.7817	-158.66	88.47	89.949	-401.63	1086.9	248.33	-455.09	59.304	-104.34	-371.41	493.32	-23.287	-166.19	1640.6	8.4389	-327.16	379.1	-62.955	-330.49	666.4	-182.35	-318.81	1242.1	207.9	-354.4	290.67	-58.848	-270.75	1419.1	122.88	-326.6	757.66	-201.15	-110.16	414.07	43.006	-354.58	1059	-264.17	-167.4	705.73	91.824	-301.02	29.741	-53.29	-262.78	763.37	145.82	-219.88	677.45	135.73	-380.24	201.83	-56.31	-110.83	316.78	40.882	-285.09	835.18	182.77	-172.61	1231.7	-40.712
498	2.49	-249.32	33.019	-78.362	-340.41	1607.7	-94.197	-172.83	826.32	-311.22	-298.82	1078	-331.56	-374.71	1478.7	-33.248	19.964	65.415	59.418	-283.25	1417.1	-201.85	-25.63	56.022	127.29	58.567	85.215	104.06	-121.87	316.89	113.75	-283.07	1215.7	-286.29	-249.54	944.97	-330.55	-102.33	228.13	42.137	-352.63	807.48	217.59	-100.67	831.53	-290.9	-281.21	789.09	233.15	-368.41	927.03	246.18	-180.18	41.809	24.424	-104.65	96.289	16.688	-168.68	545.77	116.45	-430.55	67.137	-22.658	-267.6	669.49	-139.72	-432.41	1092.4	171.1	-356.55	288.37	-130.61	-467.94	1035.2	-66.358	-276.57	1032.6	-190.55	-332.58	573.94	-160.48	-350.46	509.51	-150.02	-183.33	589.6	119.02	-275.48	989.47	118.69	-469.7	1033.5	1.8915	-162.83	1642.7	-66.165	-518.95	34.788	-53.68	-454.64	1223.2	-32.148	-341.27	22.285	-136.38	-336.95	1599.9	42.433	-398.42	1367.5	119.02	-179.73	504.41	-7.8823	-142.93	87.049	90.442	-397.01	1086.5	248.53	-455.04	59.362	-104.23	-369.23	493.08	-23.239	-161.43	1640	8.6081	-325.5	378.54	-62.933	-327.4	666.06	-182.27	-314.04	1241.5	208	-353.19	290.25	-58.791	-265.88	1418.5	122.93	-323.04	757.28	-201.07	-103.89	413.93	43.196	-348.79	1058.4	-264.63	-163.71	703.91	92.118	-300.99	29.731	-53.268	-258.91	762	146.05	-216.49	675.86	135.87	-379.44	201.53	-56.245	-101.63	316.64	41.221	-280.86	834.62	182.79	-167.8	1231.3	-40.765
499	2.495	-249.14	32.761	-78.476	-335.64	1607.1	-94.015	-165	826.94	-310.7	-292.76	1077.7	-331.87	-369.93	1478.2	-33.114	35.915	67.267	59.644	-278.48	1416.6	-201.72	-9.4116	57.174	127.64	74.13	87.859	104.17	-113.02	316.46	114.01	-277.65	1215.4	-286.37	-242.54	944.95	-330.52	-90.806	228.04	42.574	-348.37	806.98	217.73	-92.944	832.72	-290.17	-276.95	788.5	233.17	-363.95	926.55	246.33	-163.83	40.069	24.944	-89.399	96.053	17.203	-165.79	543.94	116.52	-430.42	67.074	-22.556	-264.46	668.79	-139.59	-427.82	1092	171.33	-355.33	287.94	-130.53	-463.22	1034.6	-65.72	-272.37	1032	-190.68	-329.87	573.54	-160.47	-348.15	509.13	-149.94	-180.35	587.77	119.1	-270.15	988.73	118.71	-464.75	1032.8	2.4792	-158.05	1642.2	-65.976	-518.92	34.881	-53.586	-449.88	1222.6	-31.784	-341.27	22.256	-136.4	-332.17	1599.3	42.612	-393.55	1367	119.16	-176.02	502.54	-8.0015	-127.48	85.89	90.956	-392.35	1086	248.74	-454.99	59.424	-104.12	-367	492.82	-23.17	-156.64	1639.4	8.798	-323.8	377.97	-62.891	-324.26	665.7	-182.16	-309.23	1241	208.1	-351.97	289.81	-58.715	-261	1417.9	123	-319.45	756.89	-200.97	-97.772	413.78	43.325	-343	1057.8	-265.05	-160.06	702.01	92.458	-300.96	29.719	-53.251	-255.14	760.55	146.29	-213.2	674.19	136.01	-378.64	201.23	-56.172	-92.655	316.57	41.509	-276.58	834.02	182.82	-163	1230.9	-40.82
500	2.5	-248.96	32.508	-78.588	-330.85	1606.6	-93.809	-157.25	827.53	-310.16	-286.75	1077.3	-332.15	-365.14	1477.6	-32.954	51.433	69.332	59.761	-273.7	1416.1	-201.57	6.4465	58.555	127.91	89.279	90.722	104.13	-104.33	316.1	114.24	-272.24	1215	-286.42	-235.61	944.91	-330.44	-79.584	228.07	42.965	-344.07	806.45	217.89	-85.304	833.88	-289.44	-272.65	787.87	233.21	-359.45	926.02	246.5	-147.87	38.563	25.513	-74.564	96.021	17.695	-162.94	542.06	116.58	-430.29	67.013	-22.449	-261.29	668.08	-139.43	-423.18	1091.5	171.58	-354.07	287.5	-130.43	-458.49	1033.9	-65.069	-268.19	1031.4	-190.79	-327.13	573.13	-160.44	-345.8	508.73	-149.85	-177.41	585.86	119.16	-264.77	987.97	118.73	-459.78	1032.1	3.0843	-153.25	1641.6	-65.765	-518.88	34.98	-53.495	-445.1	1222.1	-31.396	-341.27	22.232	-136.42	-327.37	1598.6	42.815	-388.66	1366.4	119.32	-172.37	500.65	-8.1348	-112.36	84.981	91.48	-387.64	1085.5	248.97	-454.93	59.49	-104	-364.71	492.55	-23.078	-151.84	1638.8	9.0091	-322.08	377.38	-62.829	-321.09	665.32	-182.04	-304.37	1240.4	208.22	-350.73	289.36	-58.621	-256.09	1417.3	123.1	-315.82	756.46	-200.86	-91.8	413.62	43.392	-337.22	1057.2	-265.45	-156.46	700.05	92.844	-300.92	29.707	-53.237	-251.46	759	146.52	-209.99	672.44	136.14	-377.82	200.93	-56.088	-83.913	316.56	41.74	-272.28	833.38	182.86	-158.19	1230.4	-40.873
501	2.505	-248.79	32.258	-78.698	-326.06	1606	-93.58	-149.6	828.09	-309.61	-280.77	1077	-332.41	-360.34	1477	-32.767	66.463	71.59	59.763	-268.9	1415.6	-201.39	21.891	60.135	128.09	103.97	93.775	103.93	-95.806	315.81	114.43	-266.82	1214.7	-286.44	-228.76	944.84	-330.34	-68.688	228.2	43.302	-339.73	805.89	218.06	-77.756	834.99	-288.7	-268.31	787.2	233.26	-354.91	925.46	246.68	-132.34	37.269	26.116	-60.191	96.171	18.151	-160.1	540.15	116.62	-430.16	66.953	-22.337	-258.09	667.36	-139.24	-418.49	1091	171.84	-352.79	287.07	-130.33	-453.73	1033.2	-64.409	-264.02	1030.9	-190.88	-324.34	572.7	-160.39	-343.4	508.32	-149.75	-174.5	583.91	119.19	-259.36	987.19	118.75	-454.78	1031.4	3.7043	-148.45	1641	-65.534	-518.84	35.088	-53.406	-440.31	1221.5	-30.986	-341.28	22.212	-136.43	-322.56	1597.9	43.042	-383.74	1365.8	119.51	-168.74	498.76	-8.277	-97.628	84.303	92.001	-382.88	1085	249.21	-454.87	59.562	-103.89	-362.37	492.26	-22.963	-147.03	1638.2	9.2421	-320.32	376.78	-62.744	-317.86	664.92	-181.89	-299.48	1239.8	208.36	-349.48	288.91	-58.508	-251.15	1416.7	123.21	-312.14	756.02	-200.73	-85.963	413.44	43.401	-331.43	1056.5	-265.81	-152.88	698.07	93.271	-300.89	29.694	-53.226	-247.86	757.39	146.76	-206.82	670.64	136.27	-376.99	200.62	-55.994	-75.41	316.59	41.913	-267.93	832.7	182.91	-153.38	1229.8	-40.925
